<svg width="16" height="16" viewBox="0 0 16 16" fill="none" xmlns="http://www.w3.org/2000/svg">
<path d="M8.88344 8.00079L15.8165 1.06773C16.0606 0.823634 16.0606 0.427884 15.8165 0.183822C15.5724 -0.0602407 15.1766 -0.0602719 14.9326 0.183822L7.9995 7.11688L1.06649 0.183822C0.822393 -0.0602719 0.426644 -0.0602719 0.182582 0.183822C-0.0614804 0.427915 -0.0615116 0.823665 0.182582 1.06773L7.1156 8.00075L0.182582 14.9338C-0.0615116 15.1779 -0.0615116 15.5737 0.182582 15.8177C0.304613 15.9398 0.464581 16.0008 0.62455 16.0008C0.784518 16.0008 0.944455 15.9398 1.06652 15.8177L7.9995 8.88469L14.9325 15.8177C15.0546 15.9398 15.2145 16.0008 15.3745 16.0008C15.5345 16.0008 15.6944 15.9398 15.8165 15.8177C16.0606 15.5736 16.0606 15.1779 15.8165 14.9338L8.88344 8.00079Z" fill="#8A8D9B"/>
</svg>
