<svg width="12" height="12" viewBox="0 0 12 12" fill="none" xmlns="http://www.w3.org/2000/svg">
<g clip-path="url(#clip0)">
<path d="M11.7163 6.82638C11.5936 6.79571 11.471 6.82638 11.3636 6.90306C10.9649 7.24044 10.5048 7.51648 9.99875 7.70051C9.52335 7.88453 9.00195 7.97654 8.44987 7.97654C7.20769 7.97654 6.07286 7.47047 5.26008 6.65769C4.4473 5.84491 3.94123 4.71008 3.94123 3.4679C3.94123 2.9465 4.03324 2.44042 4.18659 1.98036C4.35529 1.48962 4.60065 1.04489 4.9227 0.661505C5.06072 0.492815 5.03005 0.247446 4.86136 0.109427C4.75401 0.0327493 4.63132 0.00207831 4.50864 0.0327493C3.20512 0.385466 2.07029 1.16758 1.25751 2.21039C0.475401 3.23787 0 4.51072 0 5.90625C0 7.57782 0.674763 9.09604 1.77892 10.2002C2.88308 11.3044 4.40129 11.9791 6.07286 11.9791C7.48373 11.9791 8.78725 11.4884 9.83006 10.6756C10.8882 9.84748 11.655 8.66664 11.977 7.31712C12.0537 7.08708 11.931 6.87239 11.7163 6.82638ZM9.37 10.0315C8.48054 10.7369 7.34571 11.1663 6.10353 11.1663C4.64666 11.1663 3.32781 10.5682 2.377 9.61744C1.4262 8.66664 0.828118 7.34779 0.828118 5.89092C0.828118 4.67941 1.22684 3.57525 1.91694 2.68579C2.39234 2.07237 2.99042 1.5663 3.68052 1.21358C3.60385 1.38227 3.52717 1.55096 3.46583 1.73499C3.26646 2.28707 3.17445 2.86982 3.17445 3.48324C3.17445 4.94011 3.77254 6.2743 4.72334 7.2251C5.67414 8.17591 7.00833 8.77399 8.4652 8.77399C9.10929 8.77399 9.72271 8.66664 10.2901 8.45195C10.4895 8.37527 10.6889 8.29859 10.8729 8.20658C10.5048 8.91201 9.99875 9.54077 9.37 10.0315Z" fill="white"/>
</g>
<defs>
<clipPath id="clip0">
<rect width="12" height="12" fill="white"/>
</clipPath>
</defs>
</svg>
