<svg width="12" height="12" viewBox="0 0 12 12" fill="none" xmlns="http://www.w3.org/2000/svg">
<path d="M8.12699 3.87302C7.58731 3.33334 6.8254 2.98413 6 2.98413C5.17461 2.98413 4.4127 3.31746 3.87302 3.87302C3.33334 4.4127 2.98413 5.17461 2.98413 6C2.98413 6.8254 3.33334 7.58731 3.87302 8.12699C4.4127 8.66667 5.17461 9.01588 6 9.01588C6.8254 9.01588 7.58731 8.68254 8.12699 8.12699C8.66667 7.58731 9.01588 6.8254 9.01588 6C9.01588 5.17461 8.68254 4.4127 8.12699 3.87302ZM7.55556 7.55556C7.15873 7.95238 6.60318 8.19048 6 8.19048C5.39683 8.19048 4.84127 7.95238 4.44445 7.55556C4.04762 7.15873 3.80953 6.60318 3.80953 6C3.80953 5.39683 4.04762 4.84127 4.44445 4.44445C4.84127 4.04762 5.39683 3.80953 6 3.80953C6.60318 3.80953 7.15873 4.04762 7.55556 4.44445C7.95238 4.84127 8.19048 5.39683 8.19048 6C8.19048 6.60318 7.95238 7.15873 7.55556 7.55556Z" fill="black"/>
<path d="M11.5873 5.58728H10.3651C10.1429 5.58728 9.95239 5.77776 9.95239 5.99998C9.95239 6.2222 10.1429 6.41268 10.3651 6.41268H11.5873C11.8095 6.41268 12 6.2222 12 5.99998C12 5.77776 11.8095 5.58728 11.5873 5.58728Z" fill="black"/>
<path d="M5.99998 9.95239C5.77776 9.95239 5.58728 10.1429 5.58728 10.3651V11.5873C5.58728 11.8095 5.77776 12 5.99998 12C6.2222 12 6.41268 11.8095 6.41268 11.5873V10.3651C6.41268 10.1429 6.2222 9.95239 5.99998 9.95239Z" fill="black"/>
<path d="M10.2382 9.66675L9.36516 8.79373C9.2223 8.635 8.95246 8.635 8.79373 8.79373C8.635 8.95246 8.635 9.20643 8.79373 9.36516L9.66675 10.2382C9.82548 10.3969 10.0794 10.3969 10.2382 10.2382C10.3969 10.0794 10.3969 9.82548 10.2382 9.66675Z" fill="black"/>
<path d="M5.99998 0C5.77776 0 5.58728 0.190476 5.58728 0.412698V1.63492C5.58728 1.85714 5.77776 2.04762 5.99998 2.04762C6.2222 2.04762 6.41268 1.85714 6.41268 1.63492V0.412698C6.41268 0.190476 6.2222 0 5.99998 0Z" fill="black"/>
<path d="M10.2539 1.76187C10.0952 1.60314 9.84122 1.60314 9.68249 1.76187L8.80948 2.63488C8.65075 2.79361 8.65075 3.04758 8.80948 3.20631C8.95233 3.36504 9.22218 3.36504 9.38091 3.20631L10.2539 2.3333C10.4127 2.17457 10.4127 1.9206 10.2539 1.76187Z" fill="black"/>
<path d="M1.63492 5.58728H0.412698C0.190476 5.58728 0 5.77776 0 5.99998C0 6.2222 0.174603 6.41268 0.412698 6.41268H1.63492C1.85714 6.41268 2.04762 6.2222 2.04762 5.99998C2.04762 5.77776 1.85714 5.58728 1.63492 5.58728Z" fill="black"/>
<path d="M3.19045 8.79373C3.04759 8.635 2.77775 8.635 2.61902 8.79373L1.746 9.66675C1.58727 9.82548 1.58727 10.0794 1.746 10.2382C1.90473 10.3969 2.1587 10.3969 2.31743 10.2382L3.19045 9.36516C3.34918 9.20643 3.34918 8.95246 3.19045 8.79373Z" fill="black"/>
<path d="M3.19045 2.63488L2.31743 1.76187C2.1587 1.60314 1.90473 1.60314 1.746 1.76187C1.58727 1.9206 1.58727 2.17457 1.746 2.3333L2.61902 3.20631C2.77775 3.36504 3.03172 3.36504 3.19045 3.20631C3.34918 3.04758 3.34918 2.79361 3.19045 2.63488Z" fill="black"/>
</svg>
